# xmcd
#
# Track frame offsets:
#	150
#	8708
#	18610
#	30164
#	37791
#	47236
#	59914
#	72123
#	86495
#	95362
#	107946
#	117886
#	127621
#	135732
#	147373
#	159121
#	172886
#	180946
#	194507
#	214383
#
# Disc length: 2994 seconds
#
# Revision: 0
# Processed by: cddbd v1.5.2PL0 Copyright (c) Steve Scherf et al.
# Submitted via: audiograbber 1.83.01
#
DISCID=060bb014
DTITLE=Various Artist - 100 Country Gospel Favourites D5
DYEAR=2004
DGENRE=Gospel
TTITLE0=The Unclouded Day
TTITLE1=Because Of Him
TTITLE2=I Must Tell Jesus
TTITLE3=Amen Chorus
TTITLE4=Silver And Gold
TTITLE5=Meeting In The Air Medley
TTITLE6=Lord Teach Me How To Pray
TTITLE7=Sweet Hour Of Prayer
TTITLE8=Old Time Religion
TTITLE9=Jesus Loves Me
TTITLE10=Oh Happy Day
TTITLE11=In My Father's Arms
TTITLE12=Good News Medley
TTITLE13=The Old Fashioned Meeting
TTITLE14=Whispering Hope
TTITLE15=Oh How I Love Jesus
TTITLE16=River Of Life
TTITLE17=The Old Ship Of Zion
TTITLE18=He Looked Beyond My Fault
TTITLE19=In My Heart
EXTD=
EXTT0=
EXTT1=
EXTT2=
EXTT3=
EXTT4=
EXTT5=
EXTT6=
EXTT7=
EXTT8=
EXTT9=
EXTT10=
EXTT11=
EXTT12=
EXTT13=
EXTT14=
EXTT15=
EXTT16=
EXTT17=
EXTT18=
EXTT19=
PLAYORDER=
